<?xml version="1.0" encoding="utf-8"?>
<!-- Generator: Adobe Illustrator 23.0.3, SVG Export Plug-In . SVG Version: 6.00 Build 0)  -->
<svg version="1.1" id="Capa_1" xmlns="http://www.w3.org/2000/svg" xmlns:xlink="http://www.w3.org/1999/xlink" x="0px" y="0px"
	 viewBox="0 0 1382.6 1318.6" style="" xml:space="preserve">
<style type="text/css">
	.st0{stroke:#00cf78 ;stroke-width:10;stroke-miterlimit:10;}
</style>
<title>yivi</title>
<path class="st0" d="M1292.3,405.4C1216.2,225.3,1063,89,875.2,34.3v5.1c267.5,78.6,463.5,326.3,463.5,619s-195.9,540.3-463.5,618.9
	v5.1C1220,1181.8,1418,820.8,1317.4,476C1310.4,452,1302.1,428.4,1292.3,405.4z"/>
<path class="st0" d="M512.3,1277.3C244.8,1198.7,48.9,951,48.9,658.3S244.8,117.9,512.3,39.4v-5.1C167.7,134.7-30.3,495.4,70.1,840
	c62.1,213.3,228.9,380.1,442.2,442.2V1277.3z"/>
</svg>
